<svg xmlns="http://www.w3.org/2000/svg" viewBox="0 0 64 64" role="img" aria-label="আইডিয়া প্রকাশন">
  <title>আইডিয়া প্রকাশন</title>
  <defs>
    <linearGradient id="ipLogo" x1="0" y1="0" x2="1" y2="1">
      <stop offset="0" stop-color="#0099ff"/>
      <stop offset="1" stop-color="#0066cc"/>
    </linearGradient>
    <linearGradient id="ipLogoFlame" x1="0.5" y1="0" x2="0.5" y2="1">
      <stop offset="0" stop-color="#ffd166"/>
      <stop offset="1" stop-color="#ff6b35"/>
    </linearGradient>
  </defs>

  <rect width="64" height="64" rx="15" fill="url(#ipLogo)"/>

  <!-- open book -->
  <path d="M12 40.5V25.2c0-1 .8-1.7 1.8-1.6 5.3.4 9.6 1.8 12.9 4.2.8.6 1.3 1.5 1.3 2.5v15.3c0 1.2-1.3 1.9-2.3 1.3-3.2-2-7.1-3.2-11.8-3.6-1.1-.1-1.9-1-1.9-2.1z"
        fill="#fff" fill-opacity=".95"/>
  <path d="M52 40.5V25.2c0-1-.8-1.7-1.8-1.6-5.3.4-9.6 1.8-12.9 4.2-.8.6-1.3 1.5-1.3 2.5v15.3c0 1.2 1.3 1.9 2.3 1.3 3.2-2 7.1-3.2 11.8-3.6 1.1-.1 1.9-1 1.9-2.1z"
        fill="#fff" fill-opacity=".75"/>

  <!-- idea flame rising from the spine -->
  <path d="M32 8.5c2.9 3.2 4.6 6.1 4.6 8.8 0 2.8-2.1 4.9-4.6 4.9s-4.6-2.1-4.6-4.9c0-2.7 1.7-5.6 4.6-8.8z"
        fill="url(#ipLogoFlame)"/>
  <circle cx="32" cy="17.6" r="1.9" fill="#fff" fill-opacity=".85"/>
</svg>
